<svg xmlns="http://www.w3.org/2000/svg" viewBox="0 0 640 420">
  <defs>
    <linearGradient id="sky" x1="0" x2="1" y1="0" y2="1">
      <stop offset="0" stop-color="#7dd3fc"/>
      <stop offset="0.55" stop-color="#60a5fa"/>
      <stop offset="1" stop-color="#2563eb"/>
    </linearGradient>
    <linearGradient id="floor" x1="0" x2="1">
      <stop offset="0" stop-color="#e0f2fe"/>
      <stop offset="1" stop-color="#eff6ff"/>
    </linearGradient>
  </defs>
  <rect width="640" height="420" rx="36" fill="url(#sky)"/>
  <path d="M0 268c98-28 190-20 276 5 103 31 225 26 364-36v183H0z" fill="url(#floor)"/>
  <rect x="64" y="66" width="232" height="136" rx="24" fill="#ffffff" opacity=".86"/>
  <path d="M94 132h166M94 160h112" stroke="#2563eb" stroke-width="16" stroke-linecap="round"/>
  <circle cx="528" cy="105" r="47" fill="#fde68a"/>
  <path d="M344 172l178-58-74 94-2 80-42-57-86 14z" fill="#ffffff" opacity=".95"/>
  <path d="M344 172l104 36 74-94" fill="none" stroke="#1d4ed8" stroke-width="12" stroke-linecap="round" stroke-linejoin="round"/>
  <rect x="108" y="250" width="112" height="94" rx="18" fill="#f97316"/>
  <rect x="128" y="230" width="72" height="36" rx="16" fill="none" stroke="#7c2d12" stroke-width="10"/>
  <circle cx="134" cy="354" r="12" fill="#7c2d12"/>
  <circle cx="194" cy="354" r="12" fill="#7c2d12"/>
  <rect x="250" y="284" width="242" height="28" rx="14" fill="#bae6fd"/>
  <rect x="324" y="330" width="208" height="24" rx="12" fill="#93c5fd"/>
</svg>
