<svg xmlns="http://www.w3.org/2000/svg" viewBox="0 0 640 420">
  <defs>
    <linearGradient id="room" x1="0" x2="1" y1="0" y2="1">
      <stop offset="0" stop-color="#f0f9ff"/>
      <stop offset=".55" stop-color="#c7d2fe"/>
      <stop offset="1" stop-color="#a78bfa"/>
    </linearGradient>
    <linearGradient id="desk" x1="0" x2="1">
      <stop offset="0" stop-color="#312e81"/>
      <stop offset="1" stop-color="#0f766e"/>
    </linearGradient>
  </defs>
  <rect width="640" height="420" rx="36" fill="url(#room)"/>
  <circle cx="500" cy="86" r="68" fill="#fef3c7"/>
  <rect x="82" y="260" width="476" height="84" rx="24" fill="url(#desk)"/>
  <rect x="188" y="124" width="264" height="154" rx="26" fill="#ffffff" opacity=".92"/>
  <rect x="216" y="154" width="208" height="86" rx="16" fill="#dbeafe"/>
  <path d="M248 192h68m32 0h44" stroke="#2563eb" stroke-width="14" stroke-linecap="round"/>
  <circle cx="150" cy="202" r="45" fill="#f59e0b"/>
  <path d="M88 306c18-54 106-54 124 0" fill="#fed7aa"/>
  <circle cx="490" cy="202" r="45" fill="#38bdf8"/>
  <path d="M428 306c18-54 106-54 124 0" fill="#bae6fd"/>
  <rect x="274" y="292" width="92" height="38" rx="12" fill="#ffffff" opacity=".9"/>
</svg>
