<svg xmlns="http://www.w3.org/2000/svg" viewBox="0 0 640 420">
  <defs>
    <linearGradient id="stage" x1="0" x2="1" y1="0" y2="1">
      <stop offset="0" stop-color="#111827"/>
      <stop offset=".52" stop-color="#4338ca"/>
      <stop offset="1" stop-color="#06b6d4"/>
    </linearGradient>
    <linearGradient id="screen" x1="0" x2="1">
      <stop offset="0" stop-color="#f8fafc"/>
      <stop offset="1" stop-color="#e0f2fe"/>
    </linearGradient>
  </defs>
  <rect width="640" height="420" rx="36" fill="url(#stage)"/>
  <circle cx="110" cy="88" r="46" fill="#22d3ee" opacity=".5"/>
  <circle cx="532" cy="96" r="58" fill="#facc15" opacity=".5"/>
  <rect x="108" y="70" width="424" height="216" rx="26" fill="url(#screen)"/>
  <rect x="152" y="118" width="124" height="26" rx="13" fill="#4f46e5"/>
  <rect x="152" y="168" width="74" height="74" rx="16" fill="#38bdf8"/>
  <rect x="248" y="150" width="74" height="92" rx="16" fill="#34d399"/>
  <rect x="344" y="130" width="74" height="112" rx="16" fill="#f59e0b"/>
  <path d="M116 334c70-38 153-48 234-30 62 14 118 12 174-16" fill="none" stroke="#a5f3fc" stroke-width="20" stroke-linecap="round" opacity=".72"/>
  <circle cx="324" cy="318" r="31" fill="#ffffff"/>
  <path d="M306 360c8-42 48-42 56 0" fill="#ffffff"/>
</svg>
